<?xml version="1.0" standalone="no"?>
<!DOCTYPE svg PUBLIC "-//W3C//DTD SVG 20010904//EN"
 "http://www.w3.org/TR/2001/REC-SVG-20010904/DTD/svg10.dtd">
<svg version="1.0" xmlns="http://www.w3.org/2000/svg"
 width="500.000000pt" height="504.000000pt" viewBox="0 0 500.000000 504.000000"
 preserveAspectRatio="xMidYMid meet">

<g transform="translate(0.000000,504.000000) scale(0.100000,-0.100000)"
fill="#000000" stroke="none">
<path d="M1085 3950 c-153 -153 -277 -281 -275 -284 3 -3 253 -254 555 -558
303 -304 557 -561 564 -571 13 -17 -31 -64 -555 -588 l-569 -569 288 -287 287
-288 565 565 c311 311 569 566 575 568 5 2 265 -251 577 -562 l568 -565 285
284 285 285 -570 570 -570 570 122 122 c67 68 262 265 433 438 171 173 373
377 448 453 l137 137 -280 280 c-154 154 -284 280 -290 280 -5 0 -265 -255
-577 -567 l-568 -568 -568 568 c-312 312 -572 567 -577 567 -6 0 -136 -126
-290 -280z"/>
</g>
</svg>
