<?xml version="1.0" standalone="no"?>
<!DOCTYPE svg PUBLIC "-//W3C//DTD SVG 20010904//EN"
 "http://www.w3.org/TR/2001/REC-SVG-20010904/DTD/svg10.dtd">
<svg version="1.0" xmlns="http://www.w3.org/2000/svg"
 width="497.000000pt" height="477.000000pt" viewBox="0 0 497.000000 477.000000"
 preserveAspectRatio="xMidYMid meet">

<g transform="translate(0.000000,477.000000) scale(0.100000,-0.100000)"
fill="#000000" stroke="none">
<path d="M2140 4255 c-349 -50 -681 -195 -950 -412 -101 -82 -262 -249 -338
-353 -347 -468 -467 -1077 -323 -1641 16 -63 34 -126 40 -141 l11 -28 540 0
540 0 0 453 c0 521 -7 480 100 551 73 48 264 106 389 118 32 3 34 1 47 -42 8
-25 14 -48 14 -51 0 -3 -39 -11 -86 -18 -105 -15 -232 -53 -268 -82 -32 -25
-34 -61 -4 -89 140 -130 957 -148 1223 -26 126 58 78 130 -117 176 -46 10
-109 22 -141 26 -42 5 -57 10 -53 20 3 7 10 31 16 53 12 46 -3 46 181 6 145
-32 252 -78 306 -132 l43 -42 0 -461 0 -460 468 0 469 0 27 88 c184 600 60
1258 -333 1762 -303 390 -764 655 -1260 724 -133 19 -417 20 -541 1z m387
-697 c31 -34 41 -59 63 -151 45 -187 46 -481 3 -660 l-18 -72 -6 125 c-7 139
-19 187 -54 227 -19 23 -27 26 -42 17 -44 -26 -72 -131 -74 -278 l-1 -91 -13
49 c-40 145 -46 505 -10 660 38 167 97 234 152 174z"/>
<path d="M445 1433 c-89 -23 -136 -154 -82 -234 28 -41 60 -59 110 -59 38 0
97 23 97 39 0 17 -14 19 -41 6 -75 -39 -149 13 -149 105 0 86 87 144 147 98
13 -10 33 -3 33 12 0 21 -77 42 -115 33z"/>
<path d="M2294 1426 c-42 -18 -73 -65 -80 -119 -17 -124 86 -207 184 -147 90
55 81 226 -13 266 -42 17 -51 17 -91 0z m77 -26 c33 -18 52 -68 47 -127 -6
-66 -36 -103 -84 -103 -86 0 -113 160 -37 219 29 23 45 26 74 11z"/>
<path d="M3773 1425 c-20 -8 -35 -23 -38 -38 -13 -48 -2 -71 52 -107 58 -39
70 -59 53 -90 -13 -24 -56 -27 -88 -4 -21 14 -22 14 -22 -5 0 -25 28 -41 74
-41 49 0 76 29 76 79 0 40 -9 51 -84 104 -29 20 -34 58 -11 77 14 12 29 11 68
-5 12 -5 17 -2 17 8 0 29 -53 41 -97 22z"/>
<path d="M4534 1433 c-28 -5 -51 -30 -59 -65 -7 -29 -6 -31 97 -122 23 -20 26
-29 19 -48 -10 -29 -53 -36 -86 -14 -17 12 -26 13 -31 4 -12 -19 35 -48 76
-48 47 0 80 36 80 86 0 29 -7 39 -50 70 -28 20 -55 44 -60 54 -21 40 16 69 64
50 15 -5 29 -10 32 -10 7 0 4 29 -3 33 -15 8 -58 14 -79 10z"/>
<path d="M641 1300 c-28 -72 -51 -136 -51 -141 0 -25 34 -1 45 31 11 34 13 35
65 35 52 0 54 -1 65 -35 8 -24 19 -36 34 -38 27 -4 29 -14 -34 155 -26 70 -49
119 -58 121 -11 2 -29 -34 -66 -128z m99 -37 c0 -8 -15 -13 -41 -13 -46 0 -47
5 -13 85 l16 40 19 -50 c10 -28 19 -56 19 -62z"/>
<path d="M870 1290 c0 -132 1 -140 20 -140 18 0 20 8 22 95 l3 94 85 -94 c47
-52 91 -94 98 -94 10 -1 12 30 10 136 -3 122 -5 138 -20 141 -16 3 -18 -7 -18
-97 l0 -101 -91 100 c-50 55 -95 100 -100 100 -5 0 -9 -63 -9 -140z"/>
<path d="M1200 1290 l0 -140 63 0 c100 0 146 39 154 127 8 97 -50 153 -159
153 l-58 0 0 -140z m141 82 c43 -39 51 -103 17 -152 -21 -31 -30 -35 -71 -38
l-47 -3 0 110 0 111 35 0 c24 0 44 -9 66 -28z"/>
<path d="M1490 1426 c-3 -2 -4 -65 -2 -140 l3 -136 68 0 c52 0 70 4 75 15 4
12 -5 15 -49 15 l-54 0 -3 122 c-3 101 -6 123 -18 126 -9 1 -18 1 -20 -2z"/>
<path d="M1690 1290 l0 -140 70 0 c56 0 70 3 70 15 0 11 -12 15 -50 15 l-50 0
0 50 0 50 40 0 c29 0 40 4 40 15 0 11 -11 15 -40 15 l-40 0 0 45 0 45 50 0
c38 0 50 4 50 15 0 12 -14 15 -70 15 l-70 0 0 -140z"/>
<path d="M1990 1422 c0 -4 18 -41 40 -82 33 -62 40 -85 40 -132 0 -50 3 -58
19 -58 16 0 17 6 13 52 -4 48 -1 60 39 135 40 74 47 105 20 89 -5 -4 -24 -31
-41 -62 l-32 -55 -20 38 c-34 65 -48 83 -63 83 -8 0 -15 -3 -15 -8z"/>
<path d="M2530 1330 c0 -150 23 -190 109 -190 31 0 49 7 73 29 l33 29 3 116
c4 111 3 116 -16 116 -19 0 -20 -5 -15 -74 7 -89 -2 -141 -28 -167 -28 -28
-73 -25 -98 7 -18 23 -21 41 -21 130 0 97 -1 104 -20 104 -19 0 -20 -7 -20
-100z"/>
<path d="M2840 1291 c0 -134 1 -141 20 -141 17 0 20 7 20 50 0 43 3 50 20 50
12 0 34 -19 57 -50 20 -27 45 -50 55 -50 25 0 23 5 -19 63 -24 33 -33 52 -25
55 16 5 42 55 42 81 0 11 -10 32 -23 46 -18 22 -34 27 -85 32 l-62 6 0 -142z
m118 87 c32 -32 -4 -98 -53 -98 -24 0 -25 3 -25 55 l0 55 33 0 c18 0 38 -5 45
-12z"/>
<path d="M3177 1423 c-4 -3 -2 -11 3 -18 5 -6 30 -68 54 -136 26 -73 49 -124
57 -124 7 0 27 36 45 79 l31 79 18 -49 c37 -101 45 -116 57 -112 11 4 116 257
118 281 0 5 -8 7 -17 5 -12 -2 -31 -37 -59 -111 l-41 -108 -38 106 c-34 97
-55 129 -72 111 -4 -4 -1 -22 5 -40 11 -30 9 -42 -14 -106 l-27 -73 -40 112
c-29 82 -44 111 -57 111 -9 0 -20 -3 -23 -7z"/>
<path d="M3610 1290 c0 -133 1 -140 20 -140 19 0 20 7 20 140 0 133 -1 140
-20 140 -19 0 -20 -7 -20 -140z"/>
<path d="M3950 1290 c0 -132 1 -140 20 -140 16 0 19 8 22 63 l3 62 73 3 72 3
0 -66 c0 -58 2 -65 20 -65 19 0 20 7 20 140 0 133 -1 140 -20 140 -18 0 -20
-7 -20 -60 l0 -60 -75 0 -75 0 0 60 c0 53 -2 60 -20 60 -19 0 -20 -7 -20 -140z"/>
<path d="M4280 1290 l0 -140 70 0 c56 0 70 3 70 15 0 11 -12 15 -50 15 l-50 0
0 49 0 50 42 3 c59 4 63 28 4 28 l-46 0 0 45 0 45 50 0 c38 0 50 4 50 15 0 12
-14 15 -70 15 l-70 0 0 -140z"/>
<path d="M1100 896 c0 -10 163 -135 256 -196 234 -154 497 -252 794 -296 142
-20 455 -15 595 10 213 39 442 122 626 227 106 61 295 196 333 238 l19 21
-1311 0 c-722 0 -1312 -2 -1312 -4z"/>
</g>
</svg>
